<svg height="512pt" viewBox="0 -120 512 512" width="512pt" xmlns="http://www.w3.org/2000/svg"><path d="m168.03125 0-29.863281 29.847656-29.859375-29.847656h-108.308594v271h108.308594l29.859375-29.847656 29.863281 29.847656h343.96875v-271zm0 0" fill="#fc6c6c"/><path d="m0 135.5v135.5h108.308594l29.859375-29.847656 29.863281 29.847656h343.96875v-135.5zm0 0" fill="#ef4a50"/><path d="m282.773438 64.484375h40.011718v40h-40.011718zm0 0" fill="#ffe07f"/><path d="m384.835938 166.515625h40.011718v40h-40.011718zm0 0" fill="#ffd23a"/><path d="m292.203125 218.300781-21.21875-21.214843 144.433594-144.386719 21.222656 21.214843zm0 0" fill="#ffe07f"/><path d="m332.589844 135.5-61.605469 61.585938 21.21875 21.214843 82.828125-82.800781zm0 0" fill="#ffd23a"/></svg>