<svg xmlns="http://www.w3.org/2000/svg" xmlns:xlink="http://www.w3.org/1999/xlink" version="1.1" x="0px" y="0px" viewBox="0 0 100 125" style="enable-background:new 0 0 100 100;" xml:space="preserve"><g><path d="M8.056,64.437l27.508,27.508C37.534,93.915,40.153,95,42.94,95s5.406-1.085,7.377-3.056l38.921-38.921   c3.404-3.404,5.319-7.931,5.393-12.746l0.368-24.688c0.042-2.816-1.023-5.472-2.999-7.479C90.022,6.105,87.384,5,84.569,5   L59.723,5.369c-4.815,0.073-9.342,1.988-12.746,5.393L8.056,49.683C3.987,53.75,3.987,60.369,8.056,64.437z M10.884,52.511   L49.805,13.59c2.665-2.665,6.209-4.164,9.979-4.221L84.569,9c1.735,0,3.361,0.682,4.581,1.919c1.218,1.236,1.875,2.874,1.849,4.61   l-0.368,24.688c-0.057,3.77-1.556,7.313-4.221,9.979L47.489,89.116C46.274,90.331,44.659,91,42.94,91s-3.334-0.669-4.549-1.884   L10.884,61.608C8.376,59.1,8.376,55.02,10.884,52.511z"/><path d="M71.62,38.267c2.641,0,5.123-1.028,6.99-2.896c3.854-3.854,3.854-10.127,0-13.981c-1.867-1.867-4.351-2.896-6.99-2.896   c-2.641,0-5.124,1.028-6.991,2.896c-3.854,3.854-3.854,10.127,0,13.981C66.496,37.238,68.979,38.267,71.62,38.267z M67.457,24.218   c1.112-1.111,2.59-1.724,4.163-1.724c1.572,0,3.05,0.612,4.162,1.724c2.294,2.295,2.294,6.03,0,8.325   c-1.112,1.111-2.59,1.724-4.162,1.724c-1.573,0-3.051-0.612-4.163-1.724C65.162,30.248,65.162,26.513,67.457,24.218z"/></g><text x="0" y="115" fill="#000000" font-size="5px" font-weight="bold" font-family="'Helvetica Neue', Helvetica, Arial-Unicode, Arial, Sans-serif">Created by Maxim Kulikov</text><text x="0" y="120" fill="#000000" font-size="5px" font-weight="bold" font-family="'Helvetica Neue', Helvetica, Arial-Unicode, Arial, Sans-serif">from the Noun Project</text></svg>