<svg xmlns="http://www.w3.org/2000/svg" xmlns:xlink="http://www.w3.org/1999/xlink" xml:space="preserve" version="1.1" style="shape-rendering:geometricPrecision;text-rendering:geometricPrecision;image-rendering:optimizeQuality;" viewBox="0 0 2539.98 3174.975" x="0px" y="0px" fill-rule="evenodd" clip-rule="evenodd"><defs><style type="text/css">
   
    .fil0 {fill:black}
   
  </style></defs><g><path class="fil0" d="M992.12 1012.61c22.02,-188.39 0,-426.88 0,-623.42 183.49,0 366.98,0 550.47,0 -6.27,241.57 -49.13,583.81 41.84,804.53 49.79,119.83 154.89,232.65 191.31,347.93 -86.47,-0.01 -872.55,-2.33 -876.38,0.84 -7.59,6.31 -134.64,202.29 -149.82,227.42 -85.46,145.07 -132.16,292.05 -20.15,438.53 -268.7,-26.79 -237.95,-210.12 -141.85,-400.17 136.01,-266.55 370.7,-486.15 404.58,-795.66zm-503.53 731.07c-139.33,219.86 -153.82,541.57 165.81,579.55 204.62,28.22 436.83,-10.21 645.86,-10.21 338.75,0 527,-3.06 564.76,-9.18 304.74,-49.61 339.03,-291.64 208.14,-525.98 -117.74,-209.8 -357.87,-499.78 -403.54,-711.17 -45.02,-204.59 -72.52,-537.74 26.53,-731.07 41.78,-88.61 -39.93,-112.7 -111.54,-122.64 -114.83,-15.94 -238.21,2.23 -355.44,1.05 -100.22,-1.01 -194.47,-6.32 -295.2,0.69 -61.56,4.52 -136.19,6.69 -104.59,98.46 16.16,35.66 40.21,81.92 47.96,119.38 27.04,158.66 27.04,356.09 0,591.79 -19.49,150.89 -275.42,549.22 -388.75,719.33z"/></g><text x="0" y="2554.98" fill="#000000" font-size="5px" font-weight="bold" font-family="'Helvetica Neue', Helvetica, Arial-Unicode, Arial, Sans-serif">Created by romli ahmad</text><text x="0" y="2559.98" fill="#000000" font-size="5px" font-weight="bold" font-family="'Helvetica Neue', Helvetica, Arial-Unicode, Arial, Sans-serif">from the Noun Project</text></svg>