<svg xmlns="http://www.w3.org/2000/svg" xmlns:xlink="http://www.w3.org/1999/xlink" version="1.1" x="0px" y="0px" viewBox="0 0 96 120" enable-background="new 0 0 96 96" xml:space="preserve"><g><path d="M70.846,31.583c-6.247-6.248-16.374-6.248-22.621,0c-6.248,6.246-6.248,16.373,0,22.621c6.247,6.246,16.374,6.246,22.621,0   C77.093,47.956,77.093,37.829,70.846,31.583z M51.188,51.239c-4.611-4.609-4.611-12.084,0-16.693   c4.609-4.611,12.084-4.611,16.694,0c4.61,4.609,4.61,12.084,0,16.693C63.272,55.851,55.798,55.851,51.188,51.239z"/><path d="M93.927,70.29c-1.774-1.773-12.789-12.787-19.796-16.949l-4.058,4.059c4.186,6.982,15.085,18.111,16.859,19.885   c2.395,2.395,5.9,2.771,7.832,0.838C96.697,76.19,96.321,72.685,93.927,70.29z"/><g><path d="M91.408,63.81l-7.743-39.475l-5.539,0.939l7.688,33.42C87.798,60.433,89.712,62.202,91.408,63.81z"/><path d="M72.116,65.188c-11.76,1.775-22.138,6.652-22.138,6.652l-3.785,1.85l-3.783-1.85c0,0-21.205-9.975-37.343-6.596    l9.195-39.971l-5.54-0.939L0,68.812l46.194,8.443l31.336-5.729C75.743,69.538,73.849,67.351,72.116,65.188z"/></g><path d="M40.652,42.892c0-4.533,1.599-8.814,4.511-12.225v-8.09c-9.857-7.729-26.447-5.693-26.447-5.693L8.723,62.159   c18.103-2.396,32.566,6.326,36.439,8.951V55.118C42.25,51.708,40.652,47.427,40.652,42.892z"/><g><path d="M59.536,24.011c5.043,0,9.784,1.965,13.352,5.531c3.566,3.564,5.531,8.307,5.531,13.35c0,2.994-0.707,5.871-2.015,8.469    c1.799,1.143,3.798,2.648,5.827,4.299l-8.559-38.775c0,0-16.592-2.035-26.449,5.693v6.02    C50.649,25.638,54.964,24.011,59.536,24.011z"/><path d="M68.11,59.71c-2.624,1.344-5.542,2.066-8.574,2.066c-4.572,0-8.887-1.629-12.312-4.588V71.11    c2.826-1.914,11.291-7.07,22.689-8.791C69.254,61.421,68.644,60.544,68.11,59.71z"/></g></g><text x="0" y="111" fill="#000000" font-size="5px" font-weight="bold" font-family="'Helvetica Neue', Helvetica, Arial-Unicode, Arial, Sans-serif">Created by Creative Stall</text><text x="0" y="116" fill="#000000" font-size="5px" font-weight="bold" font-family="'Helvetica Neue', Helvetica, Arial-Unicode, Arial, Sans-serif">from the Noun Project</text></svg>