<svg xmlns="http://www.w3.org/2000/svg" xmlns:xlink="http://www.w3.org/1999/xlink" xml:space="preserve" version="1.1" style="shape-rendering:geometricPrecision;text-rendering:geometricPrecision;image-rendering:optimizeQuality;" viewBox="0 0 2539.98 3174.975" x="0px" y="0px" fill-rule="evenodd" clip-rule="evenodd"><defs><style type="text/css">
   
    .fil0 {fill:black}
   
  </style></defs><g><path class="fil0" d="M1814.36 1969.13c-0.52,-74.15 -11.28,-165.27 6.46,-228.87 233.51,-49.25 391.72,-197.63 588.72,-310.79 20.27,-126.4 -93.23,-224.94 -192.66,-135.18 2.53,-20.84 -11.37,-34.74 -42.32,-41.06 -105.98,75.37 -237.64,120.65 -336.68,209.09 -8.85,3.79 -9.48,11.37 -1.9,22.11 9.48,12.63 13.27,22.11 10.74,27.79 -68.14,49.06 -122.92,111.43 -209.97,118.15 1.01,10.07 2.12,20.02 3.3,29.83 10.53,58.45 132.64,246.19 174.31,308.93zm-1366.98 297.37c88.52,19.13 185.3,5.44 263.46,-36.77 -2.6,-23.59 -2.05,-55.61 -2.22,-73.7 -0.65,-65.79 0.16,-131.74 1.03,-197.53l0.22 -18.15c-32.78,17.86 -65.26,60.2 -97.78,64.35 -58.07,5.64 -105.51,-73.94 -153.03,-72.21 -38.79,1.72 -73.31,69.03 -121.69,72.21 -60.89,3.9 -87.03,-65.34 -143.81,-72.21l0 13.52c7.63,157.94 95.58,286.41 253.82,320.49zm1156.6 2.66c226.2,-19.97 28.5,-272.33 -32.29,-366.47 -47.41,-73 -91.16,-144.95 -99.68,-234.24 -11.07,-94.63 0,-214.43 0,-313.16l-276.52 0c3.15,121.34 24.67,293.27 -21.02,404.14 -25.01,60.19 -77.81,116.87 -96.11,174.78 609.95,0 560.17,297.37 525.62,334.95zm120.97 -233.47c69.99,110.45 77.26,272.05 -83.3,291.13 -102.78,14.18 -219.43,-5.13 -324.43,-5.13 -170.17,0 -264.73,-1.54 -283.7,-4.61l-2.82 -0.49c14.49,-18.5 25.62,-40.95 31.9,-67.45 0.25,-1.05 0.42,-1.96 0.58,-3.04 7.41,-49.9 10.34,-101.58 12.21,-151.97 2.22,-59.48 2.61,-119.1 2.47,-178.61 -0.07,-31.61 -0.4,-63.25 -0.77,-94.89 25.81,-44.29 46.41,-87.15 54.59,-125.01 22.61,-102.77 36.43,-270.13 -13.33,-367.24 -43.48,-84.86 157.36,-62.51 196.64,-61.37 63.09,1.82 119.52,-4.26 186.22,0.64 30.93,2.27 68.42,3.36 52.55,49.45 -8.12,17.92 -20.2,41.15 -24.1,59.98 -13.58,79.7 -13.58,178.87 0,297.27 9.8,75.8 138.36,275.89 195.29,361.34zm-900.31 208.85c30.52,44.73 99.33,39.27 131.31,-1.75 17.34,-22.85 8.35,-100.61 8.27,-131.68 4.87,-299.06 7.97,-597.99 12.14,-897.02 0.98,-70.4 6.41,-62.5 -69.92,-18.59 -7.64,4.4 -83.32,47.13 -83.75,47.79 -3.53,5.37 -13.72,660.56 -13.77,714.83 -0.03,40.03 -1.32,257.48 15.72,286.42zm177.04 -649.9c-0.5,65.49 1.3,629.21 -21.95,661.55 -50.95,77.08 -169.71,62.96 -195.08,-32.49 2.07,5.54 3.23,-86.84 3.71,-277.98 0.79,-271.51 -0.36,-543 3.63,-814.49 0.17,-11.56 -1.52,-9.9 18.61,-10.22 13.23,-0.21 106.01,6.67 94.48,-23.88 -10.35,-27.4 -104.91,-10.6 -129.98,-13.35 -27.63,-3.04 -40.73,-13.39 -44.1,-41.16 -1.2,-27.06 25.9,-32.11 48.65,-36.46 54.18,-9.42 242.07,-17.57 280.77,19.52 30.8,29.52 -5.97,51.37 -34.05,59.05 -25.38,6.94 -20.83,33.19 -20.86,57.2 -0.23,150.89 -2.83,301.8 -3.83,452.71zm-274.67 -616.99c-33.7,14.07 -44.18,41.15 -32.01,80.85 11.62,34.3 25.09,57.02 61.06,68.22 -5.65,277.4 -6.3,554.84 -9.97,832.26 -2.11,169.48 -1.33,262.17 2.92,278.47 38.77,141.77 244.95,143.36 278.12,3.3 23.51,-158.38 10.31,-460.49 12.51,-630.12 1.77,-152.1 4.23,-304.45 5.23,-456.53 0.33,-51.82 18.84,-35.93 45.69,-63.59 19.89,-20.48 22.91,-76.66 -0.27,-98.65 -26.46,-25.1 -69.92,-23 -103.92,-24.44 -51.43,-2.18 -214.24,-3.58 -259.36,10.23zm-294.99 612.82l0 -84.88c14.83,-2.64 114.48,9.71 107.33,-16.96 -7.09,-26.45 -101.8,-16.9 -126.67,-19.85 -62.31,-7.38 -44.63,-49.6 7.22,-65.56 49.16,-15.12 226.54,-26.94 266.48,14.57 16.51,17.15 6.88,34.37 -13.15,42.34 -37.94,15.09 -36.38,3.13 -39.5,45.37 -1.82,24.58 -6.55,69.1 14.81,86.2 15.66,12.54 41.8,22.71 61.26,27.91 6.88,-49.82 -34.44,-43.12 -40.94,-77.82 -8.87,-47.41 44.27,-40.66 46.57,-98.02 1.82,-45.4 3.18,-52.07 -45.4,-69.18 -72.15,-25.42 -226.04,-27.16 -293.4,7.33 -5.88,3.01 -9.18,5.33 -14.43,9.18 -3.69,2.98 -4.84,4.51 -7.55,8.24 -25.23,41.73 -8.96,99.46 41.41,110.86l0 53.24c-455.94,186.61 -288.34,828.01 188.98,778.66 54,-5.39 104.27,-22.12 148.95,-47.56 -6.29,-10.46 -11.67,-21.86 -15.98,-34.2 -63.2,36.47 -138.78,54.72 -220.23,48.57 -367.97,-31.18 -491.55,-560.74 -65.76,-718.44zm901.99 -434.41c22.69,-104.48 83.77,-197.52 194.34,-230.03 56.66,88.46 97.45,195.95 166.77,275.41 102.78,-76.6 215.26,-122.93 319.87,-192.25 -102.65,-184.34 -211.22,-370.39 -318.45,-552.37 -49.79,-84.5 -103.68,-178.92 -159.16,-259.55l-1.44 -2.09c-83.75,2.62 -304.21,89.21 -310.79,184.45 -3.79,60.62 177.8,319.57 218.56,403.64 -101.2,36.43 -173.39,104.8 -222.18,199.99 -10.17,19.85 -4.88,15.01 -4.53,35.73 0.79,48.44 -2.45,95.87 -33.66,135.17 46.52,-3.21 94.51,0.42 134.87,1.59 5.28,0.15 10.54,0.25 15.8,0.31zm534.62 8.19c-12.11,7.75 -96.52,61.66 -47.95,77.45 49.24,16.01 170.29,-38.88 165.48,-96.81 -4.11,-49.46 -102.03,10.15 -117.53,19.36zm-24.92 1165.38c121.31,-1.42 242.74,-4.79 364.33,-10.13 19.58,-137.07 17.05,-229.93 -7.58,-277.94 -44.99,-2.66 -188.61,-8.38 -352.68,-11.8 46.01,102.71 48.19,217.8 -4.07,299.87z"/></g><text x="0" y="2554.98" fill="#000000" font-size="5px" font-weight="bold" font-family="'Helvetica Neue', Helvetica, Arial-Unicode, Arial, Sans-serif">Created by romli ahmad</text><text x="0" y="2559.98" fill="#000000" font-size="5px" font-weight="bold" font-family="'Helvetica Neue', Helvetica, Arial-Unicode, Arial, Sans-serif">from the Noun Project</text></svg>